<svg width="32" height="32" viewBox="0 0 32 32" fill="none" xmlns="http://www.w3.org/2000/svg">
<circle cx="16" cy="16" r="16" fill="#184871"/>
<path d="M18.3198 4H13.6802L4 24.9853H8.24598V25H10.5544C10.5393 24.7865 10.4333 21.8853 13.8543 21.8043C13.8543 21.8043 14.6717 22.8499 15.3075 24.087L16.2006 23.4022L16.8817 23.9691C16.8817 23.9691 17.6159 22.3419 18.6755 21.8043C18.6755 21.8043 22.0814 22.386 21.7181 24.9853H23.8751H28L18.3198 4ZM19.3264 18.0491L16.0038 22.5922V22.8057C16.0038 22.8057 13.5894 19.3818 12.8704 18.0123C12.8704 18.0123 12.4087 17.1802 13.0899 16.7163L13.3851 14.9197L16.0189 15.7518L19.0085 14.9197V16.6648C18.9858 16.6795 19.7351 17.195 19.3264 18.0491ZM16.0795 15.0964L12.0605 13.9478V15.5088H12.3027V15.9432H12.0605V16.8047C12.2271 16.9004 12.333 17.0698 12.333 17.2686C12.333 17.5705 12.0908 17.8135 11.7729 17.8135C11.4626 17.8135 11.2129 17.5778 11.2129 17.2686C11.2129 17.0477 11.3491 16.8489 11.5535 16.7679V15.9506H11.3113V15.5161H11.5535V13.8226L16.0568 12.372L21.1353 13.8226L16.0795 15.0964Z" fill="white"/>
</svg>
